<svg xmlns="http://www.w3.org/2000/svg" xmlns:xlink="http://www.w3.org/1999/xlink" width="500" zoomAndPan="magnify" viewBox="0 0 375 374.999991" height="500" preserveAspectRatio="xMidYMid meet" version="1.0"><defs><g/><clipPath id="07fe96ec49"><path d="M 216 214 L 322 214 L 322 257 L 216 257 Z M 216 214 " clip-rule="nonzero"/></clipPath><clipPath id="89416f3d60"><path d="M 304.84375 272.179688 L 214.15625 243.050781 L 232.046875 187.351562 L 322.730469 216.480469 Z M 304.84375 272.179688 " clip-rule="nonzero"/></clipPath><clipPath id="695a7ed819"><path d="M 304.84375 272.179688 L 214.15625 243.050781 L 232.046875 187.351562 L 322.730469 216.480469 Z M 304.84375 272.179688 " clip-rule="nonzero"/></clipPath></defs><g clip-path="url(#07fe96ec49)"><g clip-path="url(#89416f3d60)"><g clip-path="url(#695a7ed819)"><path fill="#5271ff" d="M 296.925781 234.378906 C 296.378906 234.839844 295.738281 235.347656 295.195312 235.808594 C 294.484375 236.296875 293.699219 236.757812 292.988281 237.242188 L 292.820312 237.269531 C 291.941406 237.78125 291.039062 238.363281 289.96875 238.976562 C 289.089844 239.488281 288.023438 240.097656 287 240.5625 C 286.046875 241.050781 285.046875 241.445312 284.144531 241.789062 L 283.046875 242.230469 C 282.597656 242.402344 282.046875 242.625 281.453125 242.75 C 280.925781 242.898438 280.234375 243.074219 279.542969 243.25 C 279.210938 243.300781 278.949219 243.375 278.613281 243.425781 C 278.28125 243.476562 277.945312 243.53125 277.589844 243.652344 C 276.898438 243.828125 276.230469 243.929688 275.632812 244.058594 C 274.320312 244.191406 272.933594 244.300781 271.644531 244.363281 C 270.6875 244.375 269.730469 244.382812 268.871094 244.347656 C 268.246094 244.304688 267.699219 244.289062 267.050781 244.320312 C 266.742188 244.296875 266.503906 244.300781 266.167969 244.351562 C 265.691406 244.355469 265.210938 244.363281 264.734375 244.367188 C 264.113281 244.328125 263.488281 244.285156 262.9375 244.269531 L 261.984375 244.277344 C 261.359375 244.238281 260.738281 244.195312 260.042969 244.132812 C 259.496094 244.113281 258.894531 244 258.367188 243.910156 L 258.296875 243.886719 C 257.625 243.753906 256.789062 243.640625 256.042969 243.484375 C 255.757812 243.390625 255.375 243.347656 255.085938 243.253906 C 254.726562 243.136719 254.269531 243.070312 253.910156 242.957031 C 252.496094 242.660156 250.960938 242.246094 249.234375 241.691406 L 248.945312 241.601562 C 247.652344 241.183594 246.285156 240.746094 244.867188 240.210938 C 244.4375 240.070312 244.027344 239.859375 243.59375 239.722656 C 243.308594 239.628906 243.113281 239.488281 242.828125 239.394531 L 242.539062 239.304688 C 242.035156 239.140625 241.625 238.929688 241.121094 238.769531 C 240.714844 238.558594 240.230469 238.324219 239.824219 238.113281 C 239.558594 237.949219 239.199219 237.832031 238.933594 237.667969 C 238.597656 237.480469 238.238281 237.367188 237.972656 237.203125 C 237.5625 236.992188 237.132812 236.851562 236.722656 236.640625 C 236.097656 236.363281 235.496094 236.007812 234.894531 235.65625 L 234.367188 235.328125 L 234.027344 235.140625 C 233.355469 234.765625 232.609375 234.367188 231.886719 233.898438 C 231.214844 233.523438 230.5625 233.074219 229.769531 232.582031 C 229.238281 232.253906 228.804688 231.875 228.347656 231.570312 C 228.15625 231.425781 227.960938 231.285156 227.769531 231.144531 C 227.140625 230.625 226.417969 230.15625 225.769531 229.707031 C 225.382812 229.425781 224.902344 229.191406 224.515625 228.910156 L 224.25 228.746094 C 224.132812 228.625 223.988281 228.582031 223.84375 228.535156 C 223.050781 228.28125 222.074219 228.601562 221.554688 229.230469 C 221.367188 229.328125 221.152344 229.496094 221.011719 229.6875 C 220.492188 230.316406 219.949219 231.015625 219.382812 231.785156 C 219.125 232.101562 218.863281 232.414062 218.699219 232.679688 L 218.464844 232.921875 C 218.226562 233.164062 218.0625 233.425781 217.898438 233.691406 C 217.734375 233.957031 217.496094 234.199219 217.238281 234.511719 C 216.742188 235.066406 216.703125 235.929688 217.09375 236.6875 L 217.21875 237.046875 C 217.339844 237.402344 217.582031 237.640625 217.898438 237.898438 L 218.066406 238.113281 C 218.378906 238.371094 218.671875 238.703125 218.984375 238.964844 C 219.296875 239.222656 219.683594 239.507812 219.925781 239.742188 C 220.191406 239.90625 220.503906 240.167969 220.746094 240.402344 L 221.132812 240.6875 C 221.445312 240.945312 221.78125 241.132812 222.046875 241.296875 C 222.167969 241.414062 222.3125 241.460938 222.433594 241.578125 C 222.890625 241.886719 223.347656 242.191406 223.804688 242.496094 C 224.382812 242.921875 225.035156 243.367188 225.636719 243.71875 C 226.164062 244.050781 226.695312 244.378906 227.222656 244.707031 C 227.898438 245.082031 228.546875 245.53125 229.199219 245.976562 C 230.425781 246.847656 231.820312 247.453125 233.121094 248.109375 L 233.527344 248.320312 C 233.863281 248.507812 234.296875 248.644531 234.632812 248.835938 C 235.523438 249.277344 236.484375 249.746094 237.46875 250.140625 L 237.683594 250.210938 C 238.8125 250.652344 239.992188 251.191406 241.144531 251.558594 C 241.503906 251.675781 241.933594 251.8125 242.292969 251.929688 C 243.015625 252.160156 243.804688 252.414062 244.503906 252.71875 L 244.933594 252.855469 C 245.367188 252.996094 245.773438 253.207031 246.207031 253.34375 C 246.277344 253.367188 246.277344 253.367188 246.351562 253.390625 C 246.925781 253.578125 247.574219 253.785156 248.316406 253.945312 C 249.5625 254.265625 250.761719 254.492188 252.007812 254.8125 L 252.535156 254.902344 C 253.496094 255.128906 254.308594 255.3125 255.148438 255.421875 C 255.769531 255.464844 256.367188 255.578125 257.0625 255.640625 L 257.5625 255.5625 C 257.945312 255.609375 258.257812 255.628906 258.640625 255.671875 C 259.863281 255.824219 261.179688 255.929688 262.421875 256.011719 C 263.761719 256.046875 265.101562 256.078125 266.441406 256.113281 C 266.679688 256.109375 266.847656 256.082031 267.085938 256.082031 C 270.265625 256.070312 272.773438 255.921875 275.113281 255.5625 C 276.59375 255.402344 277.953125 255.125 279.242188 254.824219 C 279.574219 254.773438 279.933594 254.648438 280.265625 254.597656 C 280.601562 254.546875 280.863281 254.472656 281.199219 254.421875 C 281.890625 254.246094 282.507812 254.046875 283.105469 253.921875 L 283.367188 253.847656 L 283.105469 253.921875 C 284.058594 253.671875 284.964844 253.328125 285.84375 253.054688 C 286.296875 252.882812 286.75 252.710938 287.179688 252.609375 C 288.511719 252.164062 289.871094 251.648438 291.34375 251.007812 C 292.628906 250.46875 293.890625 249.761719 295.339844 248.957031 C 296.289062 248.46875 297.476562 247.738281 298.738281 247.03125 C 299.710938 246.472656 300.730469 245.765625 301.964844 244.890625 C 302.675781 244.40625 303.316406 243.898438 303.957031 243.386719 L 304.570312 242.710938 L 304.785156 242.542969 C 305.1875 242.273438 305.542969 241.914062 305.945312 241.644531 C 306.375 241.304688 306.75 240.871094 307.175781 240.53125 L 307.320312 240.339844 L 307.648438 240.046875 C 308.101562 239.636719 308.574219 239.152344 309.046875 238.671875 C 309.140625 238.621094 309.164062 238.550781 309.28125 238.429688 C 309.519531 238.1875 309.730469 238.015625 309.898438 237.753906 L 309.917969 237.679688 C 310.179688 237.367188 310.511719 237.074219 310.84375 236.785156 C 311.527344 236.132812 312.121094 235.527344 312.757812 234.78125 C 313.15625 234.273438 313.488281 233.742188 313.863281 233.308594 C 314.171875 232.851562 314.453125 232.464844 314.832031 232.03125 C 315.351562 231.402344 315.75 230.660156 316.195312 230.007812 L 316.359375 229.742188 C 316.546875 229.40625 316.785156 229.164062 316.972656 228.828125 C 317.394531 228.25 317.769531 227.578125 318.144531 226.902344 C 318.214844 226.6875 318.332031 226.566406 318.402344 226.351562 C 318.449219 226.207031 318.566406 226.085938 318.613281 225.941406 L 318.730469 225.820312 C 318.871094 225.628906 318.941406 225.410156 319.058594 225.289062 C 319.578125 224.425781 320.042969 223.460938 320.511719 222.5 C 320.722656 222.09375 320.863281 221.660156 321 221.230469 C 321.046875 221.085938 321.09375 220.941406 321.140625 220.796875 L 321.183594 220.652344 C 321.207031 220.582031 321.230469 220.507812 321.277344 220.363281 C 321.417969 219.933594 321.460938 219.550781 321.453125 219.070312 C 321.453125 218.832031 321.378906 218.570312 321.207031 218.359375 C 321.160156 218.261719 321.183594 218.191406 321.109375 218.167969 C 321.011719 217.976562 320.890625 217.859375 320.792969 217.667969 C 320.574219 217.359375 320.3125 217.195312 319.949219 217.082031 C 319.808594 217.035156 319.6875 216.914062 319.566406 216.796875 C 319.371094 216.65625 319.25 216.539062 319.035156 216.46875 C 318.625 216.257812 318.242188 215.976562 317.832031 215.765625 L 317.566406 215.601562 C 317.375 215.457031 317.109375 215.292969 316.894531 215.226562 C 316.75 215.179688 316.699219 215.082031 316.558594 215.039062 L 316.125 214.898438 C 316.054688 214.875 315.933594 214.757812 315.859375 214.734375 C 315.523438 214.546875 315.28125 214.308594 314.921875 214.195312 C 314.347656 214.007812 313.796875 213.992188 313.320312 214.234375 C 312.941406 214.429688 312.632812 214.648438 312.421875 215.058594 C 312.304688 215.179688 312.183594 215.300781 312.136719 215.445312 C 311.90625 215.925781 311.695312 216.332031 311.460938 216.816406 C 311.390625 217.03125 311.25 217.222656 311.15625 217.511719 C 310.78125 218.183594 310.40625 218.859375 309.914062 219.652344 C 309.464844 220.304688 309.066406 221.050781 308.433594 222.035156 C 307.941406 222.832031 307.375 223.601562 306.832031 224.300781 C 306.691406 224.492188 306.574219 224.613281 306.429688 224.808594 L 305.792969 225.554688 C 305.15625 226.304688 304.519531 227.050781 303.859375 227.871094 C 303.457031 228.378906 302.984375 228.863281 302.511719 229.34375 C 302.039062 229.828125 301.496094 230.289062 301.023438 230.773438 L 300.808594 230.941406 C 299.910156 231.765625 298.890625 232.707031 297.917969 233.507812 C 297.707031 233.679688 297.351562 234.039062 296.925781 234.378906 Z M 296.925781 234.378906 " fill-opacity="1" fill-rule="nonzero"/></g></g></g><g fill="#38b6ff" fill-opacity="1"><g transform="translate(57.99582, 195.045799)"><g><path d="M 42.519531 -3.132812 L 23.179688 -8.203125 L 32.574219 -44.046875 C 32.839844 -45.050781 32.378906 -45.742188 31.441406 -45.988281 L 19.183594 -49.199219 C 18.246094 -49.445312 17.503906 -49.070312 17.242188 -48.066406 L 4.746094 -0.398438 C 4.492188 0.570312 4.945312 1.296875 5.878906 1.542969 L 39.015625 10.230469 C 39.984375 10.484375 40.703125 10.0625 40.957031 9.09375 L 43.652344 -1.195312 C 43.898438 -2.128906 43.488281 -2.878906 42.519531 -3.132812 Z M 42.519531 -3.132812 "/></g></g></g><g fill="#38b6ff" fill-opacity="1"><g transform="translate(101.890002, 206.076603)"><g><path d="M 28.734375 -46.628906 C 28.914062 -47.648438 28.429688 -48.292969 27.445312 -48.464844 L 14.992188 -50.636719 C 14.003906 -50.808594 13.332031 -50.363281 13.152344 -49.34375 L 4.695312 -0.792969 C 4.523438 0.191406 5 0.871094 5.988281 1.042969 L 18.441406 3.210938 C 19.425781 3.382812 20.105469 2.90625 20.277344 1.921875 Z M 28.734375 -46.628906 "/></g></g></g><g fill="#38b6ff" fill-opacity="1"><g transform="translate(127.983903, 211.20482)"><g><path d="M 54.753906 -48.347656 L 42.1875 -49.328125 C 40.949219 -49.425781 39.816406 -48.679688 39.3125 -47.542969 L 28.128906 -22.679688 L 20.960938 -48.972656 C 20.667969 -50.070312 19.742188 -51.078125 18.363281 -51.183594 L 5.832031 -52.160156 C 4.316406 -52.28125 3.550781 -51.335938 4.058594 -49.875 L 21.636719 0.613281 C 22.121094 1.964844 23.234375 2.78125 24.371094 2.867188 L 28.089844 3.160156 C 29.363281 3.257812 30.464844 2.441406 31.035156 1.34375 L 56.117188 -45.816406 C 56.808594 -47.113281 56.339844 -48.226562 54.753906 -48.347656 Z M 54.753906 -48.347656 "/></g></g></g><g fill="#38b6ff" fill-opacity="1"><g transform="translate(182.166085, 214.684861)"><g><path d="M 19.441406 -51.207031 C 19.421875 -52.242188 18.828125 -52.785156 17.824219 -52.765625 L 5.1875 -52.550781 C 4.1875 -52.535156 3.609375 -51.972656 3.625 -50.9375 L 4.460938 -1.664062 C 4.480469 -0.664062 5.074219 -0.0859375 6.078125 -0.101562 L 18.714844 -0.316406 C 19.714844 -0.335938 20.292969 -0.929688 20.277344 -1.933594 Z M 19.441406 -51.207031 "/></g></g></g><g fill="#38b6ff" fill-opacity="1"><g transform="translate(208.70013, 214.74157)"><g><path d="M 41.933594 -19.660156 L 18.589844 -17.109375 L 18.09375 -21.675781 L 34.980469 -23.523438 C 36.5625 -23.695312 37.425781 -24.691406 37.269531 -26.097656 L 36.503906 -33.101562 C 36.339844 -34.613281 35.285156 -35.367188 33.707031 -35.195312 L 16.816406 -33.347656 L 16.152344 -39.421875 L 39.667969 -41.996094 C 41.074219 -42.148438 41.804688 -43.097656 41.652344 -44.503906 L 40.507812 -54.941406 C 40.359375 -56.3125 39.441406 -57.082031 38.035156 -56.925781 L 0.992188 -52.878906 C -0.414062 -52.722656 -1.148438 -51.808594 -0.996094 -50.402344 L 4.226562 -2.652344 C 4.367188 -1.347656 5.285156 -0.578125 6.695312 -0.730469 L 44.421875 -4.855469 C 45.761719 -5.003906 46.523438 -5.953125 46.382812 -7.257812 L 45.304688 -17.113281 C 45.113281 -18.863281 43.824219 -19.867188 41.933594 -19.660156 Z M 41.933594 -19.660156 "/></g></g></g><g fill="#38b6ff" fill-opacity="1"><g transform="translate(261.162477, 209.06252)"><g><path d="M 3.84375 -3.179688 C 4.113281 -2.074219 5.367188 -1.316406 6.539062 -1.601562 L 27.671875 -6.777344 C 42.765625 -10.476562 50.585938 -23.410156 46.894531 -38.472656 C 43.191406 -53.597656 30.253906 -61.417969 15.191406 -57.726562 L -5.9375 -52.550781 C -7.113281 -52.265625 -7.878906 -51.046875 -7.59375 -49.871094 Z M 16.183594 -19.429688 L 10.808594 -41.367188 L 18.710938 -43.371094 C 24.664062 -44.902344 29.921875 -41 31.464844 -34.691406 C 32.929688 -28.722656 30.070312 -22.832031 24.097656 -21.367188 Z M 16.183594 -19.429688 "/></g></g></g><g fill="#2f3954" fill-opacity="1"><g transform="translate(128.859809, 140.48701)"><g><path d="M 0.953125 -5.289062 C 0.953125 -2.210938 3.425781 0.261719 6.503906 0.261719 C 9.582031 0.261719 12.078125 -2.210938 12.078125 -5.289062 C 12.078125 -8.371094 9.582031 -10.863281 6.503906 -10.863281 C 3.425781 -10.863281 0.953125 -8.371094 0.953125 -5.289062 Z M 2.710938 -5.289062 C 2.710938 -7.371094 4.421875 -9.128906 6.503906 -9.128906 C 8.585938 -9.128906 10.320312 -7.371094 10.320312 -5.289062 C 10.320312 -3.210938 8.585938 -1.472656 6.503906 -1.472656 C 4.421875 -1.472656 2.710938 -3.210938 2.710938 -5.289062 Z M 2.710938 -5.289062 "/></g></g></g><g fill="#2f3954" fill-opacity="1"><g transform="translate(142.084464, 140.48701)"><g><path d="M 3.554688 -10.125 C 3.535156 -10.429688 3.339844 -10.601562 3.058594 -10.601562 L 2.234375 -10.601562 C 1.972656 -10.601562 1.757812 -10.429688 1.757812 -10.125 L 1.757812 -0.476562 C 1.757812 -0.171875 1.929688 0 2.253906 0 L 3.144531 0 C 3.449219 0 3.621094 -0.152344 3.621094 -0.476562 L 3.621094 -6.679688 C 3.621094 -7.847656 5.355469 -8.976562 6.785156 -8.976562 C 8.433594 -8.976562 9.453125 -7.761719 9.453125 -6.308594 L 9.453125 -0.519531 C 9.453125 -0.171875 9.539062 0 9.929688 0 L 10.820312 0 C 11.101562 0 11.339844 -0.195312 11.339844 -0.542969 L 11.339844 -6.308594 C 11.339844 -8.824219 9.757812 -10.839844 7.261719 -10.839844 C 5.960938 -10.839844 4.292969 -9.972656 3.621094 -9.148438 Z M 3.554688 -10.125 "/></g></g></g><g fill="#2f3954" fill-opacity="1"><g transform="translate(154.8972, 140.48701)"><g><path d="M 3.621094 -15.613281 C 3.621094 -15.894531 3.425781 -16.089844 3.144531 -16.089844 L 2.234375 -16.089844 C 1.929688 -16.089844 1.757812 -15.914062 1.757812 -15.613281 L 1.757812 -0.476562 C 1.757812 -0.152344 1.90625 0 2.234375 0 L 3.144531 0 C 3.449219 0 3.621094 -0.152344 3.621094 -0.476562 Z M 3.621094 -15.613281 "/></g></g></g><g fill="#2f3954" fill-opacity="1"><g transform="translate(160.273783, 140.48701)"><g><path d="M 3.621094 -10.167969 C 3.621094 -10.449219 3.425781 -10.644531 3.144531 -10.644531 L 2.234375 -10.644531 C 1.929688 -10.644531 1.757812 -10.472656 1.757812 -10.167969 L 1.757812 -0.476562 C 1.757812 -0.152344 1.90625 0 2.234375 0 L 3.144531 0 C 3.449219 0 3.621094 -0.152344 3.621094 -0.476562 Z M 1.324219 -13.636719 C 1.324219 -12.902344 1.929688 -12.292969 2.6875 -12.292969 C 3.46875 -12.292969 4.054688 -12.902344 4.054688 -13.636719 C 4.054688 -14.398438 3.46875 -15.003906 2.6875 -15.003906 C 1.929688 -15.003906 1.324219 -14.398438 1.324219 -13.636719 Z M 1.324219 -13.636719 "/></g></g></g><g fill="#2f3954" fill-opacity="1"><g transform="translate(165.650365, 140.48701)"><g><path d="M 3.554688 -10.125 C 3.535156 -10.429688 3.339844 -10.601562 3.058594 -10.601562 L 2.234375 -10.601562 C 1.972656 -10.601562 1.757812 -10.429688 1.757812 -10.125 L 1.757812 -0.476562 C 1.757812 -0.171875 1.929688 0 2.253906 0 L 3.144531 0 C 3.449219 0 3.621094 -0.152344 3.621094 -0.476562 L 3.621094 -6.679688 C 3.621094 -7.847656 5.355469 -8.976562 6.785156 -8.976562 C 8.433594 -8.976562 9.453125 -7.761719 9.453125 -6.308594 L 9.453125 -0.519531 C 9.453125 -0.171875 9.539062 0 9.929688 0 L 10.820312 0 C 11.101562 0 11.339844 -0.195312 11.339844 -0.542969 L 11.339844 -6.308594 C 11.339844 -8.824219 9.757812 -10.839844 7.261719 -10.839844 C 5.960938 -10.839844 4.292969 -9.972656 3.621094 -9.148438 Z M 3.554688 -10.125 "/></g></g></g><g fill="#2f3954" fill-opacity="1"><g transform="translate(178.463101, 140.48701)"><g><path d="M 6.070312 0.261719 C 7.414062 0.261719 8.542969 -0.304688 9.519531 -0.953125 C 9.648438 -1.039062 9.867188 -1.191406 9.886719 -1.386719 C 9.886719 -1.453125 9.867188 -1.519531 9.800781 -1.582031 L 9.195312 -2.492188 C 9.128906 -2.582031 9.042969 -2.625 8.953125 -2.625 C 8.804688 -2.625 8.652344 -2.558594 8.566406 -2.472656 C 7.871094 -1.886719 6.9375 -1.5625 6.070312 -1.5625 C 4.464844 -1.5625 3.121094 -2.753906 2.863281 -4.488281 L 9.519531 -4.488281 C 10.300781 -4.488281 10.929688 -4.617188 10.929688 -5.484375 L 10.929688 -5.746094 C 10.929688 -8.566406 8.714844 -10.863281 6.070312 -10.863281 C 3.230469 -10.863281 0.953125 -8.371094 0.953125 -5.289062 C 0.953125 -2.210938 3.230469 0.261719 6.070312 0.261719 Z M 2.949219 -6.09375 C 3.316406 -7.71875 4.53125 -9.042969 6.027344 -9.042969 C 7.480469 -9.042969 8.804688 -7.71875 9.085938 -6.09375 Z M 2.949219 -6.09375 "/></g></g></g><g fill="#2f3954" fill-opacity="1"><g transform="translate(189.996731, 140.48701)"><g/></g></g><g fill="#2f3954" fill-opacity="1"><g transform="translate(196.782493, 140.48701)"><g><path d="M 0.84375 -2.167969 C 1.277344 -0.605469 2.96875 0.195312 4.53125 0.195312 C 6.765625 0.195312 8.390625 -0.996094 8.390625 -2.925781 C 8.390625 -4.660156 6.980469 -5.789062 4.683594 -6.375 C 3.859375 -6.589844 2.90625 -6.960938 2.90625 -7.847656 C 2.90625 -8.542969 3.621094 -9.214844 4.660156 -9.214844 C 5.441406 -9.214844 6.007812 -8.714844 6.417969 -8.152344 C 6.570312 -7.957031 6.699219 -7.742188 6.851562 -7.742188 C 6.894531 -7.742188 6.960938 -7.761719 7.003906 -7.804688 L 7.890625 -8.433594 C 8.042969 -8.542969 7.980469 -8.695312 7.914062 -8.804688 C 7.175781 -10.105469 6.246094 -10.90625 4.640625 -10.90625 C 2.582031 -10.90625 1.171875 -9.628906 1.171875 -7.847656 C 1.171875 -6.179688 2.429688 -5.117188 4.335938 -4.617188 C 5.527344 -4.292969 6.570312 -3.882812 6.570312 -2.925781 C 6.570312 -2.058594 5.507812 -1.519531 4.53125 -1.519531 C 3.96875 -1.519531 2.863281 -1.820312 2.535156 -2.710938 C 2.492188 -2.882812 2.339844 -3.058594 2.167969 -3.058594 C 2.125 -3.058594 2.082031 -3.058594 2.039062 -3.035156 L 0.953125 -2.601562 C 0.78125 -2.535156 0.78125 -2.296875 0.84375 -2.167969 Z M 0.84375 -2.167969 "/></g></g></g><g fill="#2f3954" fill-opacity="1"><g transform="translate(205.996394, 140.48701)"><g><path d="M 5.441406 0.171875 C 5.789062 0.152344 5.984375 -0.0234375 5.984375 -0.347656 L 5.984375 -1.039062 C 5.984375 -1.386719 5.765625 -1.582031 5.441406 -1.582031 C 4.574219 -1.605469 4.292969 -1.625 4.292969 -3.101562 L 4.292969 -8.910156 L 5.898438 -8.910156 C 6.222656 -8.910156 6.375 -9.085938 6.375 -9.433594 L 6.375 -10.148438 C 6.375 -10.515625 6.222656 -10.644531 5.898438 -10.644531 L 4.292969 -10.644531 L 4.292969 -13.726562 C 4.292969 -14.007812 4.226562 -14.289062 3.882812 -14.289062 L 2.773438 -14.136719 C 2.515625 -14.070312 2.40625 -13.964844 2.40625 -13.703125 L 2.40625 -10.644531 L 1.105469 -10.644531 C 0.757812 -10.644531 0.5625 -10.558594 0.5625 -10.191406 L 0.5625 -9.386719 C 0.5625 -9.019531 0.757812 -8.910156 1.105469 -8.910156 L 2.40625 -8.910156 L 2.40625 -2.40625 C 2.40625 -0.0859375 3.707031 0.195312 5.09375 0.195312 C 5.226562 0.195312 5.332031 0.171875 5.441406 0.171875 Z M 5.441406 0.171875 "/></g></g></g><g fill="#2f3954" fill-opacity="1"><g transform="translate(213.107352, 140.48701)"><g><path d="M 0.953125 -5.289062 C 0.953125 -2.210938 3.425781 0.261719 6.503906 0.261719 C 9.582031 0.261719 12.078125 -2.210938 12.078125 -5.289062 C 12.078125 -8.371094 9.582031 -10.863281 6.503906 -10.863281 C 3.425781 -10.863281 0.953125 -8.371094 0.953125 -5.289062 Z M 2.710938 -5.289062 C 2.710938 -7.371094 4.421875 -9.128906 6.503906 -9.128906 C 8.585938 -9.128906 10.320312 -7.371094 10.320312 -5.289062 C 10.320312 -3.210938 8.585938 -1.472656 6.503906 -1.472656 C 4.421875 -1.472656 2.710938 -3.210938 2.710938 -5.289062 Z M 2.710938 -5.289062 "/></g></g></g><g fill="#2f3954" fill-opacity="1"><g transform="translate(226.332006, 140.48701)"><g><path d="M 3.511719 -10.167969 C 3.46875 -10.429688 3.316406 -10.644531 3.015625 -10.644531 L 2.234375 -10.644531 C 1.972656 -10.644531 1.757812 -10.449219 1.757812 -10.167969 L 1.757812 -0.476562 C 1.757812 -0.152344 1.929688 0 2.253906 0 L 3.144531 0 C 3.449219 0 3.621094 -0.152344 3.621094 -0.476562 L 3.621094 -6.113281 C 3.621094 -7.4375 4.511719 -8.953125 5.8125 -8.953125 C 6.203125 -8.933594 6.699219 -8.78125 6.980469 -8.609375 C 7.023438 -8.585938 7.113281 -8.5 7.242188 -8.5 C 7.328125 -8.5 7.4375 -8.566406 7.523438 -8.714844 L 8.066406 -9.734375 C 8.085938 -9.800781 8.109375 -9.84375 8.109375 -9.910156 C 8.109375 -10.167969 7.023438 -10.820312 6.070312 -10.820312 C 4.726562 -10.820312 3.988281 -10.039062 3.621094 -9.367188 Z M 3.511719 -10.167969 "/></g></g></g><g fill="#2f3954" fill-opacity="1"><g transform="translate(234.591997, 140.48701)"><g><path d="M 6.070312 0.261719 C 7.414062 0.261719 8.542969 -0.304688 9.519531 -0.953125 C 9.648438 -1.039062 9.867188 -1.191406 9.886719 -1.386719 C 9.886719 -1.453125 9.867188 -1.519531 9.800781 -1.582031 L 9.195312 -2.492188 C 9.128906 -2.582031 9.042969 -2.625 8.953125 -2.625 C 8.804688 -2.625 8.652344 -2.558594 8.566406 -2.472656 C 7.871094 -1.886719 6.9375 -1.5625 6.070312 -1.5625 C 4.464844 -1.5625 3.121094 -2.753906 2.863281 -4.488281 L 9.519531 -4.488281 C 10.300781 -4.488281 10.929688 -4.617188 10.929688 -5.484375 L 10.929688 -5.746094 C 10.929688 -8.566406 8.714844 -10.863281 6.070312 -10.863281 C 3.230469 -10.863281 0.953125 -8.371094 0.953125 -5.289062 C 0.953125 -2.210938 3.230469 0.261719 6.070312 0.261719 Z M 2.949219 -6.09375 C 3.316406 -7.71875 4.53125 -9.042969 6.027344 -9.042969 C 7.480469 -9.042969 8.804688 -7.71875 9.085938 -6.09375 Z M 2.949219 -6.09375 "/></g></g></g></svg>